# xmcd
#
# Track frame offsets:
#	150
#	12348
#	27630
#	42229
#	59371
#	74621
#	88671
#	104785
#	122110
#	136418
#	148151
#	163064
#	179105
#	192241
#	207300
#	219570
#	234153
#	251643
#	265406
#	280904
#
# Disc length: 3964 seconds
#
# Revision: 2
# Processed by: cddbd v1.5.2PL0 Copyright (c) Steve Scherf et al.
# Submitted via: EZCDAudioConverter 7.0.7.1
#
DISCID=450f7a14
DTITLE=Neal McCoy - The Very Best Of Neal McCoy
DYEAR=2008
DGENRE=Country
TTITLE0=Wink
TTITLE1=For A Change
TTITLE2=Rednecktified
TTITLE3=No Doubt About It
TTITLE4=They're Playin' Our Song
TTITLE5=Now I Pray For Rain
TTITLE6=The City Put The Country Back In Me
TTITLE7=Going, Going, Gone
TTITLE8=Where Forever Begins
TTITLE9=You Gotta Love That
TTITLE10=Then You Can Tell Me Goodbye
TTITLE11=The Shake
TTITLE12=That Woman Of Mine
TTITLE13=If I Was A Drinkin' Man
TTITLE14=Love Happens Like That
TTITLE15=I Was
TTITLE16=Every Man For Himself
TTITLE17=The Last Of A Dying Breed
TTITLE18=Forever Works For Me
TTITLE19=Billy's Got His Beer Goggles On
EXTD=
EXTT0=
EXTT1=
EXTT2=
EXTT3=
EXTT4=
EXTT5=
EXTT6=
EXTT7=
EXTT8=
EXTT9=
EXTT10=
EXTT11=
EXTT12=
EXTT13=
EXTT14=
EXTT15=
EXTT16=
EXTT17=
EXTT18=
EXTT19=
PLAYORDER=
